<svg width="31" height="16" viewBox="0 0 31 16" fill="none" xmlns="http://www.w3.org/2000/svg">
<path d="M3.3087 0.177306C3.64366 0.276508 4.13383 0.42531 4.39526 0.499712C4.64852 0.574113 4.86093 0.673315 4.86093 0.714649C4.86093 0.76425 4.51781 0.797317 4.06848 0.805584C3.29236 0.813851 3.31687 0.822118 5.14687 1.04532C6.18441 1.17759 7.06673 1.28506 7.10758 1.29333C7.1566 1.30159 7.03405 1.36773 6.83798 1.4504C6.55205 1.56613 6.38048 1.58266 5.98017 1.5248C4.88544 1.37599 2.94107 1.14452 2.92473 1.16106C2.91656 1.16932 3.44758 1.37599 4.10933 1.624L5.31026 2.07041L4.77923 2.14481C4.48513 2.17788 3.29236 2.19441 2.1241 2.16961L0 2.13654L2.73683 2.66562C4.24004 2.95496 5.73508 3.24429 6.04553 3.31043L6.6174 3.43443L5.26941 3.40136L3.92142 3.3683L4.82008 3.55843L5.71874 3.75684L4.86093 3.77337L4.00312 3.7899L6.08638 4.19498C7.23012 4.41818 8.33303 4.63312 8.53727 4.67445C8.80686 4.72406 8.42289 4.74886 7.06673 4.76539L5.22856 4.78192L9.72186 5.2614C13.3655 5.64994 14.2805 5.72434 14.5665 5.65821C15.1628 5.5094 16.3474 5.6086 16.9111 5.85661C17.3033 6.03021 17.6791 6.09635 18.7902 6.21208C19.5581 6.28648 20.4159 6.37742 20.71 6.40222C21.0041 6.43529 22.0172 6.41875 22.9567 6.37742L24.6723 6.29475L23.7328 6.17902C23.2181 6.12115 22.4256 6.02195 21.9763 5.96408L21.1593 5.84834L22.6707 5.88141L24.1821 5.91448L23.2018 5.77394L22.2214 5.63341L22.7933 5.5838C23.1119 5.55074 23.7001 5.559 24.1004 5.60034C24.9746 5.69127 27.4908 5.84008 27.8993 5.83181C28.0545 5.82354 27.5807 5.73261 26.8372 5.62514C25.7997 5.47634 25.236 5.35233 24.3864 5.05473L23.2835 4.68272L17.8915 4.26111C12.8018 3.87257 10.3754 3.6411 11.1107 3.6163C11.6826 3.59977 15.7511 3.90564 20.9469 4.35205C22.0008 4.44298 22.875 4.50085 22.8995 4.47605C22.924 4.45125 22.8913 4.43472 22.8341 4.43472C22.6217 4.43472 15.4406 3.52537 15.3589 3.48403C15.3181 3.4675 15.555 3.4675 15.8899 3.4923C16.2249 3.5171 17.8588 3.62457 19.5173 3.73204C21.1757 3.84777 22.5482 3.92217 22.5645 3.91391C22.6217 3.84777 18.0794 3.2691 17.9242 3.3187C17.818 3.35176 16.0125 3.16163 13.8965 2.89709C10.4163 2.45895 10.114 2.40935 10.7022 2.36801C11.3313 2.32668 11.2741 2.31841 9.16633 2.03734C7.47521 1.8224 7.00954 1.73147 7.14843 1.6736C7.3445 1.58266 12.6139 2.12827 14.7952 2.45895C15.6775 2.59122 15.9635 2.60775 16.4618 2.53335C16.7968 2.48375 17.0745 2.43415 17.0827 2.42588C17.099 2.40935 15.4243 2.18614 13.3573 1.92987C11.2986 1.66533 9.45226 1.40079 9.25619 1.33466C9.06829 1.26853 8.01441 1.04532 6.91968 0.830384C5.82495 0.615447 4.9508 0.433577 4.96714 0.417044C4.98348 0.40051 6.00468 0.491445 7.23012 0.631981C8.45557 0.76425 9.5503 0.879985 9.67284 0.871718C9.85258 0.863452 4.36258 0.152505 3.10446 0.0202363C2.71232 -0.0210978 2.72049 -0.012831 3.3087 0.177306ZM16.4618 4.74886C19.2722 5.05473 21.4943 5.311 21.3963 5.32753C21.0531 5.37713 10.1875 4.22805 10.0895 4.13711C10.0241 4.06271 11.2006 4.17845 16.4618 4.74886ZM22.1234 5.40193C22.0172 5.41847 21.8538 5.41847 21.7557 5.40193C21.6495 5.3854 21.7312 5.36887 21.9355 5.36887C22.1397 5.36887 22.2214 5.3854 22.1234 5.40193ZM22.8586 5.4846C22.7524 5.50114 22.589 5.50114 22.491 5.4846C22.3848 5.46807 22.4665 5.45154 22.6707 5.45154C22.875 5.45154 22.9567 5.46807 22.8586 5.4846Z" fill="#6E218D"/>
<path d="M7.23012 5.55901L6.86249 5.75741L4.61584 5.72434L2.36919 5.68301L5.36745 5.99715C7.00954 6.17075 8.40655 6.33609 8.47191 6.36089C8.5291 6.38569 8.34119 6.41049 8.04709 6.41876C6.94419 6.45182 7.06673 6.54276 8.61896 6.82383C9.45226 6.9809 10.163 7.13797 10.212 7.1793C10.2529 7.21237 10.0486 7.25371 9.76271 7.25371C9.2807 7.27024 9.31338 7.27851 10.0732 7.35291C10.5388 7.39424 10.8983 7.44384 10.8738 7.46864C10.8574 7.49344 8.9049 7.44384 6.53571 7.36944C4.16651 7.30331 2.21397 7.25371 2.19763 7.27024C2.18129 7.28677 3.07995 7.40251 4.19102 7.52651C5.30209 7.65878 6.28245 7.79105 6.37231 7.82412C6.47852 7.86545 6.33146 7.90678 5.92298 7.93985C4.55865 8.08039 4.57499 8.11346 6.12722 8.27052C6.93602 8.36146 7.68762 8.46066 7.802 8.49373C7.9899 8.5516 7.98173 8.5516 7.7203 8.56813C7.56508 8.5764 6.91968 8.626 6.29062 8.68387L5.14687 8.78307L5.71874 8.8492L6.29062 8.9236L5.92298 9.03107C5.57986 9.12201 5.62888 9.13027 6.65008 9.13854C7.25463 9.14681 7.72847 9.16334 7.70396 9.18814C7.68762 9.21294 7.14843 9.30388 6.50303 9.40308C5.75142 9.51055 5.2449 9.62628 5.07334 9.73375C4.89361 9.84122 4.43611 9.94869 3.79071 10.0396L2.77767 10.1802L4.00312 10.2298C4.6812 10.2628 6.42133 10.329 7.88369 10.3786C9.34606 10.4282 10.8084 10.4943 11.1434 10.5191C11.6989 10.5604 11.7398 10.5522 11.6907 10.4116C11.5764 10.114 11.5437 9.25428 11.6336 8.7748C11.8296 7.72491 12.475 6.7577 13.3737 6.16249L13.8475 5.85661L13.1694 5.79875C12.8018 5.77395 11.5437 5.65821 10.3754 5.54247C7.77749 5.30274 7.68762 5.30274 7.23012 5.55901Z" fill="#EA308B"/>
<path d="M18.1121 6.67502C18.447 7.0057 18.6758 7.33637 18.8882 7.79104C19.1905 8.43586 19.1986 8.46066 19.1986 9.43614C19.1986 10.4034 19.1905 10.4447 18.9045 11.0482C18.5532 11.7839 18.1448 12.2799 17.5729 12.6685L17.1562 12.9495L20.9143 12.9413L24.6723 12.933L23.8145 12.7842L22.9567 12.6354L23.5694 12.6189C24.0105 12.6106 24.1249 12.5858 23.9779 12.5362C23.8145 12.4783 23.8472 12.4701 24.1821 12.4535C24.5252 12.437 24.468 12.4205 23.7818 12.3213C22.7524 12.1807 22.6054 12.1146 23.4468 12.1642C23.8063 12.1807 24.7295 12.2221 25.4893 12.2469L26.8781 12.2882L25.8569 12.0815C25.2932 11.9741 24.468 11.8087 24.0187 11.7178L23.2018 11.5524L24.7131 11.5772L26.2245 11.602L24.6723 11.4119L23.1201 11.2218L24.3864 11.2548C25.0808 11.2796 26.298 11.3127 27.0823 11.3375L28.512 11.3706L27.4173 11.2135C26.0121 11.0068 25.9386 10.9903 26.633 10.9655C27.3274 10.949 27.2621 10.9159 25.9958 10.6762C24.754 10.4364 24.9501 10.4282 27.164 10.6348C28.7653 10.7836 29.8437 10.8415 29.2881 10.7423C28.4548 10.5935 24.1903 9.71721 24.1576 9.68415C24.1004 9.63454 23.937 9.61801 25.8569 9.80815C26.8781 9.90735 28.0545 9.96522 28.8797 9.96522L30.2276 9.94868L29.2473 9.88255C28.3731 9.82468 24.9664 9.35347 24.8929 9.27907C24.8847 9.26254 25.4321 9.26254 26.1183 9.2708C26.8046 9.28734 27.2212 9.27907 27.0415 9.26254C26.8618 9.246 26.4206 9.1468 26.0611 9.05587C25.7017 8.95667 24.3945 8.70039 23.1609 8.47719L20.9143 8.07212L22.1397 8.10518L23.3651 8.13825L22.1969 7.88198C21.5597 7.74971 21.045 7.61744 21.0613 7.60091C21.0777 7.58437 21.9436 7.70011 22.973 7.86545C24.0105 8.02252 24.8929 8.15478 24.9255 8.14652C24.9664 8.14652 24.5579 8.01425 24.0187 7.85718L23.0384 7.57611L23.6102 7.60917C24.2475 7.65878 24.2393 7.63397 23.5285 7.48517C23.0547 7.38597 23.0465 7.3777 23.3243 7.3281C23.5612 7.29504 23.4877 7.26197 22.875 7.17103C22.3521 7.08836 22.1969 7.03876 22.3439 6.99743C22.54 6.94783 19.4519 6.40222 18.2101 6.26995L17.6382 6.20382L18.1121 6.67502Z" fill="#EA308B"/>
<path d="M14.5828 6.46009C13.7168 6.70809 12.9979 7.34464 12.6057 8.20439C12.4505 8.53506 12.4178 8.75 12.4178 9.43614C12.4178 10.205 12.4342 10.3042 12.6793 10.8084C12.9979 11.4615 13.5126 11.9658 14.158 12.2717C14.5665 12.4701 14.7217 12.4949 15.4406 12.4949C16.1677 12.4949 16.3066 12.4701 16.7232 12.2634C18.6513 11.2879 19.0761 8.7996 17.5729 7.2785C17.2052 6.91476 16.9438 6.72463 16.5844 6.58409C15.9635 6.34435 15.171 6.29475 14.5828 6.46009ZM16.1759 7.2785C17.0745 7.70838 17.818 8.88227 17.4013 9.22947C17.2134 9.38654 17.0419 9.27081 16.8785 8.88227C16.6906 8.43586 16.1677 7.94811 15.7265 7.81585C15.3344 7.69184 15.1873 7.49344 15.3181 7.24544C15.4324 7.0305 15.6775 7.03876 16.1759 7.2785Z" fill="#4A4A4A"/>
<path d="M5.93115 11.073L3.85606 11.4202L5.6207 11.4615C6.58472 11.4863 7.40168 11.5276 7.42619 11.5524C7.4507 11.5772 6.71544 11.6516 5.7841 11.7095C4.84459 11.7674 4.01946 11.8418 3.92959 11.8748C3.84789 11.8996 4.57499 11.9989 5.54718 12.0815C6.51119 12.1642 7.28731 12.2551 7.27097 12.2799C7.24646 12.2965 6.98503 12.3378 6.67459 12.3626L6.12722 12.4122L7.6386 12.685C9.10914 12.9495 9.20717 12.9578 11.4293 12.9495H13.7168L13.3492 12.7181C12.7038 12.2965 12.0747 11.5524 11.8705 10.9655L11.7888 10.7175L9.90159 10.7258C8.08793 10.734 7.91637 10.7506 5.93115 11.073Z" fill="#EA308B"/>
<path d="M5.33477 13.1562C6.23342 13.2637 6.50302 13.3629 5.91481 13.3629C5.40829 13.3629 5.18771 13.52 5.67789 13.5365C6.6174 13.5613 6.38048 13.6688 5.14686 13.7762C4.42794 13.8341 3.88057 13.9002 3.92142 13.9085C3.97044 13.925 4.72204 14.0077 5.59619 14.1069C6.47034 14.1978 7.35266 14.297 7.55691 14.3301L7.92454 14.3797L7.36083 14.4954C7.05039 14.5533 6.78079 14.6194 6.76445 14.636C6.73994 14.6525 6.94418 14.7517 7.22195 14.8509C7.64677 15.008 7.88369 15.2147 7.76932 15.3221C7.75298 15.3387 7.17293 15.4213 6.48668 15.504L5.22856 15.6611L7.14842 15.6776C8.20231 15.6859 9.0111 15.7107 8.94574 15.7272C8.88039 15.752 8.38204 15.8181 7.84284 15.8843L6.86249 16L8.21048 15.9587C10.7104 15.8843 22.6217 15.3469 22.6544 15.3056C22.6707 15.2891 22.4665 15.2477 22.2051 15.2147C21.7476 15.1568 21.7394 15.1485 22.0172 15.0907C22.1724 15.0576 22.638 14.9997 23.0384 14.9666C23.8717 14.9088 24.2393 14.7765 23.6511 14.76C23.4468 14.7517 23.1772 14.7186 23.0384 14.6856C22.8259 14.6277 22.8586 14.6194 23.2426 14.6029C23.4877 14.5946 24.1004 14.5616 24.5906 14.5285L25.4892 14.4789L25.0399 14.3301C24.7948 14.2474 23.5612 14.0573 22.3031 13.9002C21.045 13.7432 19.9829 13.5944 19.9339 13.5778C19.893 13.5613 20.5711 13.5365 21.4453 13.5282L23.0384 13.5117L21.8946 13.3629C21.2655 13.2885 19.8767 13.1975 18.8147 13.1645C17.1726 13.1231 16.7723 13.1314 16.1759 13.2471C15.5631 13.3712 15.3998 13.3794 14.8851 13.2802C14.1906 13.1562 10.8002 13.057 7.10758 13.057C4.63218 13.0487 4.53414 13.057 5.33477 13.1562Z" fill="#6E218D"/>
<ellipse cx="15.4379" cy="9.48633" rx="4.02029" ry="4.01963" fill="#EEF0E7"/>
<ellipse cx="15.4379" cy="9.48633" rx="3.21623" ry="3.21571" fill="#4A4A4A"/>
<path d="M14.3237 7.32594C14.2515 7.35219 14.1806 7.38118 14.1123 7.41384M16.1069 7.35785C16.4969 7.51251 16.8375 7.75996 17.0933 8.07453C17.3492 8.3891 17.5109 8.75935 17.5619 9.14689" stroke="#EEF0E7" stroke-linecap="round" stroke-linejoin="round"/>
</svg>
